# xmcd
#
# Track frame offsets:
#	183
#	17508
#	39148
#	55475
#	72165
#	86743
#	111280
#	134070
#	152590
#	167910
#	190655
#	210540
#
# Disc length: 2847 seconds
# Revision: 5
# Processed by: cddbd v1.5.2PL0 Copyright (c) Steve Scherf et al.
# Submitted via: dBpowerAMP V12.0
#
DISCID=a00b1d0c
DTITLE=Captain Beefheart and The Magic Band - Shiny Beast (Bat Chain Puller)
DYEAR=1978
DGENRE=Blues Rock
TTITLE0=The Floppy Boot Stomp
TTITLE1=Tropical Hot Dog Night
TTITLE2=Ice Rose
TTITLE3=Harry Irene
TTITLE4=You Know You're a Man
TTITLE5=Bat Chain Puller
TTITLE6=When I See Mommy I Feel Like a Mummy
TTITLE7=Owed t'Alex
TTITLE8=Candle Mambo
TTITLE9=Love Lies
TTITLE10=Suction Prints
TTITLE11=Apes-Ma
EXTD=
EXTT0=
EXTT1=
EXTT2=
EXTT3=
EXTT4=
EXTT5=
EXTT6=
EXTT7=
EXTT8=
EXTT9=
EXTT10=
EXTT11=
PLAYORDER=
